<mxfile host="app.diagrams.net" modified="2023-11-11T21:22:32.301Z" agent="Mozilla/5.0 (Windows NT 10.0; Win64; x64) AppleWebKit/537.36 (KHTML, like Gecko) Chrome/119.0.0.0 Safari/537.36" etag="8amSRm3AkJEA0nj_4pdR" version="22.1.0" type="device">
  <diagram name="Page-1" id="E3meoqOBKnf8bo6GaaP5">
    <mxGraphModel dx="880" dy="468" grid="1" gridSize="10" guides="1" tooltips="1" connect="1" arrows="1" fold="1" page="1" pageScale="1" pageWidth="827" pageHeight="1169" math="0" shadow="0">
      <root>
        <mxCell id="0" />
        <mxCell id="1" parent="0" />
        <mxCell id="taITy6OA05tKMBnoF-UP-1" value="Mi tienda" style="rounded=1;whiteSpace=wrap;html=1;" parent="1" vertex="1">
          <mxGeometry x="100" y="80" width="120" height="40" as="geometry" />
        </mxCell>
        <mxCell id="taITy6OA05tKMBnoF-UP-2" value="Saldo" style="rounded=1;whiteSpace=wrap;html=1;" parent="1" vertex="1">
          <mxGeometry x="100" y="130" width="120" height="30" as="geometry" />
        </mxCell>
        <mxCell id="taITy6OA05tKMBnoF-UP-3" value="R" style="rounded=1;whiteSpace=wrap;html=1;" parent="1" vertex="1">
          <mxGeometry x="230" y="80" width="20" height="40" as="geometry" />
        </mxCell>
        <mxCell id="taITy6OA05tKMBnoF-UP-4" value="imagen, descripcion, puntuacion(Valoracion), precio,lugar tienda,cantidad stock" style="whiteSpace=wrap;html=1;aspect=fixed;" parent="1" vertex="1">
          <mxGeometry x="100" y="230" width="190" height="190" as="geometry" />
        </mxCell>
        <mxCell id="taITy6OA05tKMBnoF-UP-5" value="Agregar producto" style="rounded=1;whiteSpace=wrap;html=1;" parent="1" vertex="1">
          <mxGeometry x="324" y="80" width="120" height="40" as="geometry" />
        </mxCell>
        <mxCell id="taITy6OA05tKMBnoF-UP-7" value="R" style="rounded=1;whiteSpace=wrap;html=1;" parent="1" vertex="1">
          <mxGeometry x="454" y="80" width="20" height="40" as="geometry" />
        </mxCell>
        <mxCell id="taITy6OA05tKMBnoF-UP-9" value="Nombre tienda" style="rounded=1;whiteSpace=wrap;html=1;" parent="1" vertex="1">
          <mxGeometry x="562" y="50" width="168" height="40" as="geometry" />
        </mxCell>
        <mxCell id="LKYhIYLe8aZmdeoAkodZ-1" value="puntuacion" style="rounded=1;whiteSpace=wrap;html=1;arcSize=50;" vertex="1" parent="1">
          <mxGeometry x="740" y="55" width="63" height="30" as="geometry" />
        </mxCell>
        <mxCell id="LKYhIYLe8aZmdeoAkodZ-3" value="comprar" style="rounded=1;whiteSpace=wrap;html=1;" vertex="1" parent="1">
          <mxGeometry x="110" y="370" width="40" height="40" as="geometry" />
        </mxCell>
        <mxCell id="LKYhIYLe8aZmdeoAkodZ-4" value="ir a tienda" style="rounded=1;whiteSpace=wrap;html=1;" vertex="1" parent="1">
          <mxGeometry x="170" y="370" width="40" height="40" as="geometry" />
        </mxCell>
        <mxCell id="LKYhIYLe8aZmdeoAkodZ-5" value="ir a detalles" style="rounded=1;whiteSpace=wrap;html=1;" vertex="1" parent="1">
          <mxGeometry x="220" y="370" width="46" height="40" as="geometry" />
        </mxCell>
        <mxCell id="LKYhIYLe8aZmdeoAkodZ-6" value="Comentarios y valoraciones" style="rounded=1;whiteSpace=wrap;html=1;" vertex="1" parent="1">
          <mxGeometry x="562" y="400" width="200" height="60" as="geometry" />
        </mxCell>
        <mxCell id="LKYhIYLe8aZmdeoAkodZ-7" value="Buscador" style="rounded=1;whiteSpace=wrap;html=1;" vertex="1" parent="1">
          <mxGeometry x="100" y="190" width="140" height="20" as="geometry" />
        </mxCell>
        <mxCell id="LKYhIYLe8aZmdeoAkodZ-8" value="Lugar" style="rounded=1;whiteSpace=wrap;html=1;" vertex="1" parent="1">
          <mxGeometry x="565" y="100" width="198" height="20" as="geometry" />
        </mxCell>
        <mxCell id="LKYhIYLe8aZmdeoAkodZ-9" value="imagen, descripcion, puntuacion(Valoracion), precio,lugar tienda,cantidad stock" style="whiteSpace=wrap;html=1;aspect=fixed;" vertex="1" parent="1">
          <mxGeometry x="565" y="200" width="190" height="190" as="geometry" />
        </mxCell>
        <mxCell id="LKYhIYLe8aZmdeoAkodZ-10" value="comprar" style="rounded=1;whiteSpace=wrap;html=1;" vertex="1" parent="1">
          <mxGeometry x="600" y="340" width="40" height="40" as="geometry" />
        </mxCell>
        <mxCell id="LKYhIYLe8aZmdeoAkodZ-12" value="ir a detalles" style="rounded=1;whiteSpace=wrap;html=1;" vertex="1" parent="1">
          <mxGeometry x="670" y="340" width="46" height="40" as="geometry" />
        </mxCell>
        <mxCell id="LKYhIYLe8aZmdeoAkodZ-13" value="Buscador" style="rounded=1;whiteSpace=wrap;html=1;" vertex="1" parent="1">
          <mxGeometry x="563" y="170" width="140" height="20" as="geometry" />
        </mxCell>
        <mxCell id="LKYhIYLe8aZmdeoAkodZ-16" value="envios (nacional o internacional)" style="rounded=1;whiteSpace=wrap;html=1;" vertex="1" parent="1">
          <mxGeometry x="563" y="130" width="187" height="30" as="geometry" />
        </mxCell>
        <mxCell id="LKYhIYLe8aZmdeoAkodZ-18" value="imagen, descripcion, puntuacion(Valoracion), precio,lugar tienda,cantidad stock," style="whiteSpace=wrap;html=1;aspect=fixed;" vertex="1" parent="1">
          <mxGeometry x="324" y="220" width="190" height="190" as="geometry" />
        </mxCell>
        <mxCell id="LKYhIYLe8aZmdeoAkodZ-19" value="modificar" style="rounded=1;whiteSpace=wrap;html=1;" vertex="1" parent="1">
          <mxGeometry x="350" y="360" width="49" height="40" as="geometry" />
        </mxCell>
        <mxCell id="LKYhIYLe8aZmdeoAkodZ-20" value="Eliminar" style="rounded=1;whiteSpace=wrap;html=1;" vertex="1" parent="1">
          <mxGeometry x="429" y="360" width="46" height="40" as="geometry" />
        </mxCell>
        <mxCell id="LKYhIYLe8aZmdeoAkodZ-21" value="Modificar informacion tienda&amp;nbsp;" style="rounded=1;whiteSpace=wrap;html=1;" vertex="1" parent="1">
          <mxGeometry x="324" y="130" width="116" height="30" as="geometry" />
        </mxCell>
        <mxCell id="LKYhIYLe8aZmdeoAkodZ-27" value="Tienda" style="swimlane;fontStyle=0;childLayout=stackLayout;horizontal=1;startSize=30;horizontalStack=0;resizeParent=1;resizeParentMax=0;resizeLast=0;collapsible=1;marginBottom=0;whiteSpace=wrap;html=1;" vertex="1" parent="1">
          <mxGeometry x="50" y="470" width="140" height="150" as="geometry" />
        </mxCell>
        <mxCell id="LKYhIYLe8aZmdeoAkodZ-28" value="Nombre" style="text;strokeColor=none;fillColor=none;align=left;verticalAlign=middle;spacingLeft=4;spacingRight=4;overflow=hidden;points=[[0,0.5],[1,0.5]];portConstraint=eastwest;rotatable=0;whiteSpace=wrap;html=1;" vertex="1" parent="LKYhIYLe8aZmdeoAkodZ-27">
          <mxGeometry y="30" width="140" height="30" as="geometry" />
        </mxCell>
        <mxCell id="LKYhIYLe8aZmdeoAkodZ-29" value="Direccion" style="text;strokeColor=none;fillColor=none;align=left;verticalAlign=middle;spacingLeft=4;spacingRight=4;overflow=hidden;points=[[0,0.5],[1,0.5]];portConstraint=eastwest;rotatable=0;whiteSpace=wrap;html=1;" vertex="1" parent="LKYhIYLe8aZmdeoAkodZ-27">
          <mxGeometry y="60" width="140" height="30" as="geometry" />
        </mxCell>
        <mxCell id="LKYhIYLe8aZmdeoAkodZ-30" value="Correo electronico" style="text;strokeColor=none;fillColor=none;align=left;verticalAlign=middle;spacingLeft=4;spacingRight=4;overflow=hidden;points=[[0,0.5],[1,0.5]];portConstraint=eastwest;rotatable=0;whiteSpace=wrap;html=1;" vertex="1" parent="LKYhIYLe8aZmdeoAkodZ-27">
          <mxGeometry y="90" width="140" height="30" as="geometry" />
        </mxCell>
        <mxCell id="LKYhIYLe8aZmdeoAkodZ-31" value="envio (nacional o internacional)" style="text;strokeColor=none;fillColor=none;align=left;verticalAlign=middle;spacingLeft=4;spacingRight=4;overflow=hidden;points=[[0,0.5],[1,0.5]];portConstraint=eastwest;rotatable=0;whiteSpace=wrap;html=1;" vertex="1" parent="LKYhIYLe8aZmdeoAkodZ-27">
          <mxGeometry y="120" width="140" height="30" as="geometry" />
        </mxCell>
        <mxCell id="LKYhIYLe8aZmdeoAkodZ-35" value="puntuacion" style="rounded=1;whiteSpace=wrap;html=1;arcSize=50;" vertex="1" parent="1">
          <mxGeometry x="324" y="170" width="63" height="30" as="geometry" />
        </mxCell>
        <mxCell id="LKYhIYLe8aZmdeoAkodZ-37" value="ampliar suscripcion" style="rounded=1;whiteSpace=wrap;html=1;" vertex="1" parent="1">
          <mxGeometry x="394" y="170" width="116" height="30" as="geometry" />
        </mxCell>
        <mxCell id="LKYhIYLe8aZmdeoAkodZ-39" value="Ventas realizadas" style="rounded=1;whiteSpace=wrap;html=1;" vertex="1" parent="1">
          <mxGeometry x="444" y="125" width="80" height="40" as="geometry" />
        </mxCell>
        <mxCell id="LKYhIYLe8aZmdeoAkodZ-40" value="Compras realizadas" style="rounded=1;whiteSpace=wrap;html=1;" vertex="1" parent="1">
          <mxGeometry x="100" y="165" width="170" height="20" as="geometry" />
        </mxCell>
      </root>
    </mxGraphModel>
  </diagram>
</mxfile>
